<svg width="18" height="20" viewBox="0 0 18 20" fill="none" xmlns="http://www.w3.org/2000/svg">
<path d="M8.94737 20C9.62537 20 10.2756 19.7366 10.755 19.2678C11.2344 18.799 11.5038 18.1631 11.5038 17.5001H6.39098C6.39098 18.1631 6.66031 18.799 7.13973 19.2678C7.61914 19.7366 8.26937 20 8.94737 20ZM10.2192 1.37477C10.237 1.20097 10.2174 1.02545 10.1616 0.859513C10.1058 0.693581 10.0151 0.540926 9.89525 0.411394C9.77542 0.281861 9.62916 0.178327 9.46589 0.107468C9.30263 0.0366098 9.12599 0 8.94737 0C8.76875 0 8.59211 0.0366098 8.42885 0.107468C8.26558 0.178327 8.11932 0.281861 7.99949 0.411394C7.87966 0.540926 7.78892 0.693581 7.73313 0.859513C7.67733 1.02545 7.65772 1.20097 7.67556 1.37477C6.23084 1.66213 4.93207 2.42891 3.99917 3.54528C3.06627 4.66164 2.55658 6.05898 2.55639 7.50068C2.55639 8.87311 1.91729 15.0003 0 16.2502H17.8947C15.9774 15.0003 15.3383 8.87311 15.3383 7.50068C15.3383 4.47585 13.1398 1.95099 10.2192 1.37477Z" fill="black"/>
</svg>
