<svg width="16" height="15" viewBox="0 0 16 15" fill="none" xmlns="http://www.w3.org/2000/svg">
<path d="M2.76934 0.540039C1.23525 0.540039 0 1.67569 0 3.0861V11.9378C0 13.3482 1.23525 14.4839 2.76934 14.4839H7.98763V9.0327H6.41978V7.07011H7.98763V5.39337C7.98763 4.07602 8.914 2.86648 11.048 2.86648C11.912 2.86648 12.5509 2.94274 12.5509 2.94274L12.5007 4.77549C12.5007 4.77549 11.8491 4.76983 11.138 4.76983C10.3685 4.76983 10.2451 5.09581 10.2451 5.63696V7.07012H12.5618L12.4608 9.03272H10.2451V14.4839H12.3973C13.9314 14.4839 15.1667 13.3482 15.1667 11.9378V3.08611C15.1667 1.67571 13.9314 0.540053 12.3973 0.540053H2.76933L2.76934 0.540039Z" fill="#DDDDDD"/>
</svg>
