<svg width="19" height="16" viewBox="0 0 19 16" fill="none" xmlns="http://www.w3.org/2000/svg">
<path d="M18.9792 2.36633C18.2819 2.6659 17.5231 2.8815 16.7415 2.96547C17.553 2.48533 18.1606 1.7268 18.4505 0.832176C17.6891 1.28332 16.8549 1.59967 15.985 1.76719C15.6214 1.38008 15.1817 1.07169 14.6933 0.861242C14.2048 0.65079 13.678 0.542784 13.1458 0.543955C10.9925 0.543955 9.26074 2.28236 9.26074 4.41565C9.26074 4.71522 9.2972 5.01479 9.35644 5.30301C6.13216 5.13507 3.25651 3.60092 1.34473 1.25203C0.996379 1.84462 0.813833 2.51935 0.81608 3.20603C0.81608 4.54955 1.50195 5.73421 2.54785 6.43093C1.93149 6.40675 1.32956 6.23802 0.791015 5.93846V5.98612C0.791015 7.8675 2.1263 9.42662 3.90592 9.78519C3.57178 9.87164 3.22804 9.91586 2.88281 9.91682C2.62988 9.91682 2.39062 9.89186 2.14909 9.85781C2.64127 11.392 4.07454 12.5063 5.78125 12.5426C4.44596 13.5843 2.77344 14.197 0.957356 14.197C0.63151 14.197 0.330729 14.1857 0.0185547 14.1494C1.74121 15.25 3.78515 15.8855 5.98632 15.8855C13.1322 15.8855 17.0423 9.98944 17.0423 4.87181C17.0423 4.70387 17.0423 4.53593 17.0309 4.36799C17.7874 3.81651 18.4505 3.13341 18.9792 2.36633Z" fill="#DDDDDD"/>
</svg>
