<svg width="24" height="14" viewBox="0 0 24 14" fill="none" xmlns="http://www.w3.org/2000/svg">
<path fill-rule="evenodd" clip-rule="evenodd" d="M11.4034 13.6473H12.8034C12.8034 13.6473 13.2234 13.5776 13.4334 13.3684C13.6434 13.1593 13.6434 12.741 13.6434 12.741C13.6434 12.741 13.6434 10.9282 14.4834 10.6494C15.3234 10.3705 16.4434 12.4621 17.5634 13.229C18.4034 13.8565 19.0334 13.717 19.0334 13.717L22.1134 13.6473C22.1134 13.6473 23.7234 13.5776 22.9534 12.2529C22.8834 12.1832 22.5334 11.3466 20.6434 9.60357C18.6834 7.79087 18.9634 8.13946 21.2734 5.00209C22.6734 3.11966 23.2334 2.00415 23.0934 1.44639C22.9534 0.958356 21.9034 1.09779 21.9034 1.09779H18.4034C18.4034 1.09779 18.1234 1.02808 17.9834 1.16751C17.7734 1.30695 17.7034 1.51611 17.7034 1.51611C17.7034 1.51611 17.1434 2.98022 16.4434 4.23517C14.9034 6.81479 14.2734 6.95423 14.0634 6.81479C13.5034 6.4662 13.6434 5.28096 13.6434 4.51405C13.6434 2.00415 14.0634 0.958355 12.8734 0.679477C12.5234 0.609758 12.2434 0.540039 11.2634 0.540039C10.0034 0.540039 8.95339 0.540039 8.39339 0.818917C7.97339 1.02808 7.69339 1.44639 7.90339 1.44639C8.11339 1.44639 8.67339 1.58583 8.95339 1.93443C9.23339 2.5619 9.23339 3.6077 9.23339 3.6077C9.23339 3.6077 9.44339 6.60563 8.74339 6.95423C8.25339 7.23311 7.62339 6.67535 6.22339 4.30489C5.52339 3.11966 4.96339 1.72527 4.96339 1.72527C4.96339 1.72527 4.89339 1.44639 4.68339 1.30695C4.47339 1.16751 4.12339 1.09779 4.12339 1.09779H0.833389C0.833389 1.09779 0.343389 1.0978 0.133389 1.30695C-0.00661078 1.51611 0.133389 1.86471 0.133389 1.86471C0.133389 1.86471 2.72339 7.86059 5.66339 10.9282C8.39339 13.8565 11.4034 13.6473 11.4034 13.6473Z" fill="#DDDDDD"/>
</svg>
